<svg xmlns="http://www.w3.org/2000/svg" width="37" height="30" viewBox="0 0 37 30">
    <defs>
        <linearGradient id="a" x1="50%" x2="50%" y1="0%" y2="100%">
            <stop offset="0%" stop-color="#D74A3A"/>
            <stop offset="100%" stop-color="#7244D7"/>
        </linearGradient>
        <linearGradient id="b" x1="50%" x2="50%" y1="0%" y2="100%">
            <stop offset="0%" stop-color="#DC4A32"/>
            <stop offset="100%" stop-color="#7245D8"/>
        </linearGradient>
        <linearGradient id="c" x1="50%" x2="50%" y1="0%" y2="100%">
            <stop offset="0%" stop-color="#E54A23"/>
            <stop offset="100%" stop-color="#6F44DC"/>
        </linearGradient>
        <linearGradient id="d" x1="50%" x2="50%" y1="-61.969%" y2="221.634%">
            <stop offset="0%" stop-color="#E54A21"/>
            <stop offset="100%" stop-color="#6A44E5"/>
        </linearGradient>
    </defs>
    <g fill="none" fill-rule="nonzero">
        <g fill="url(#a)">
            <path d="M2.445 23.421H34.96V2.036H2.445c-.34 0-.382.128-.382.257V22.97c0 .193.17.45.382.45zm.15-20.85h31.81v.6H2.596v-.6zm0 1.136h31.81v19.179H2.596V3.707z"/>
            <ellipse cx="18.5" cy="26.036" rx="1" ry="1"/>
            <path d="M36.405.129H.595C.276.129.17.429.17.664v26.379c0 .278.128.557.425.557h12.738v1.736H9.952v.535h17.096v-.535h-3.38V27.6h12.737c.297 0 .425-.279.425-.557V.664c0-.235-.106-.535-.425-.535zm-13.29 29.185h-9.23V27.58h9.25v1.735h-.02zm13.183-2.271H.702v-2.1h35.575v2.1h.021zm0-2.657H.702V.686h35.575v23.7h.021z"/>
        </g>
        <path fill="url(#b)" d="M6.018 12.3C3.253 12.3.85 10.393.19 7.693a6.09 6.09 0 0 1 .702-4.586 5.937 5.937 0 0 1 3.7-2.743A6.51 6.51 0 0 1 6.04.193c2.764 0 5.167 1.907 5.827 4.607a6.09 6.09 0 0 1-.702 4.586 5.937 5.937 0 0 1-3.7 2.743c-.49.107-.957.171-1.446.171zm0-11.571c-.447 0-.872.064-1.319.15-1.424.342-2.615 1.242-3.38 2.507C.552 4.65.34 6.129.68 7.564a5.448 5.448 0 0 0 5.317 4.2c.446 0 .871-.064 1.318-.15 1.425-.343 2.615-1.243 3.381-2.507.765-1.264.978-2.743.638-4.178a5.448 5.448 0 0 0-5.316-4.2z" transform="translate(16 7)"/>
        <path fill="url(#b)" d="M6.018 11.293c-2.318 0-4.296-1.586-4.848-3.836-.66-2.7.978-5.443 3.657-6.107.383-.107.787-.15 1.19-.15 2.319 0 4.296 1.586 4.85 3.836.658 2.7-.98 5.443-3.658 6.107-.383.086-.787.15-1.191.15zm0-9.557c-.362 0-.723.043-1.063.128A4.502 4.502 0 0 0 1.68 7.307a4.466 4.466 0 0 0 5.401 3.3 4.502 4.502 0 0 0 3.275-5.443 4.466 4.466 0 0 0-4.338-3.428z" transform="translate(16 7)"/>
        <path fill="url(#b)" d="M6.04 9.964A4.08 4.08 0 0 1 3.104 8.7l.382-.364a3.505 3.505 0 0 0 4.976.107l.362.386c-.766.771-1.786 1.135-2.786 1.135z" transform="translate(16 7)"/>
        <g fill="url(#c)" transform="translate(26.207 14.929)">
            <path d="M1.148.471A5.553 5.553 0 0 1 .425 1.78l6.316 3.857.765-1.286L1.148.471z"/>
            <path d="M6.826 6L.02 1.843l.17-.236C.468 1.221.701.793.893.343L1 .043 7.847 4.22 6.826 6zM.786 1.693L6.635 5.27l.49-.835L1.276.857c-.149.3-.298.579-.49.836z"/>
        </g>
        <g fill="url(#d)" transform="translate(2 6)">
            <path d="M20.18 6.664a1.008 1.008 0 0 0-1.17-.793.785.785 0 0 0-.382.172l-2.254-1.629c-.15.107-.277.236-.404.365l2.317 1.671a1.008 1.008 0 0 0 1.106 1.393c.532-.086.893-.622.787-1.179zm-.872.772a.582.582 0 0 1-.68-.45.587.587 0 0 1 .446-.686.582.582 0 0 1 .68.45.57.57 0 0 1-.446.686zM12.227.857a1.008 1.008 0 0 0-1.17-.793 1.015 1.015 0 0 0-.786 1.179c.021.15.106.3.191.428L7.23 5.743a1.23 1.23 0 0 0-.49-.043c-.17.043-.318.107-.446.214L3.381 4.671a.927.927 0 0 0 0-.342 1.008 1.008 0 0 0-1.17-.793 1.015 1.015 0 0 0-.786 1.178.996.996 0 0 0 .255.493L.128 7.5v.943l1.998-2.957a.86.86 0 0 0 .468.021.874.874 0 0 0 .574-.364l2.829 1.2a1.063 1.063 0 0 0-.043.514c.106.536.638.9 1.17.793.531-.107.893-.643.786-1.179A1.226 1.226 0 0 0 7.676 6l3.211-4.05c.17.064.362.086.553.043a.906.906 0 0 0 .447-.236l3.274 2.379.383-.386-3.36-2.4c.043-.15.064-.321.043-.493zM2.743 4.993a.484.484 0 0 1-.255.128c-.043 0-.085.022-.106.022-.043 0-.085 0-.128-.022-.021 0-.021 0-.043-.021a.16.16 0 0 1-.085-.043c-.02 0-.02-.021-.042-.021-.021-.022-.043-.043-.064-.043L2 4.97l-.085-.085a.645.645 0 0 1-.085-.215.587.587 0 0 1 .446-.685.582.582 0 0 1 .68.45V4.5a.623.623 0 0 1-.212.493zM7.04 7.264a.582.582 0 0 1-.681-.45.36.36 0 0 1 .021-.257l.064-.128c.043-.086.128-.15.213-.215.042-.021.085-.043.149-.064h.02c.043 0 .086-.021.128 0 .043 0 .086 0 .128.021h.021a.16.16 0 0 1 .085.043l.022.022c.02.021.063.043.085.064 0 0 .02 0 .02.021.043.022.065.065.086.108a.645.645 0 0 1 .085.214c.064.257-.149.557-.446.621zm4.763-6.171a.594.594 0 0 1-.277.45c-.064.021-.106.064-.17.064a.293.293 0 0 1-.191 0 .55.55 0 0 1-.425-.321c-.022-.043-.043-.086-.064-.15A.587.587 0 0 1 11.12.45a.582.582 0 0 1 .68.45v.193z"/>
        </g>
    </g>
</svg>
