<svg xmlns="http://www.w3.org/2000/svg" width="20" height="20" viewBox="0 0 20 20">
    <g fill="none" fill-rule="evenodd">
        <path fill="#000" fill-rule="nonzero" d="M10 0C4.477 0 0 4.477 0 10s4.477 10 10 10 10-4.477 10-10S15.523 0 10 0z"/>
        <path stroke="#FFF" d="M10 1.2a8.8 8.8 0 1 0 0 17.6 8.8 8.8 0 0 0 0-17.6z"/>
        <path fill="#FFF" d="M14.8 12.786V6.8l-3.495 3.386zM5.2 12.786l3.495-2.6L5.2 6.8zM9.166 10.642L5.2 13.2h9.6l-3.966-2.558-.834.808zM5.488 6.8L10 10.423 14.512 6.8z"/>
    </g>
</svg>
