<svg xmlns="http://www.w3.org/2000/svg" width="20" height="20" viewBox="0 0 20 20">
    <g fill="none" fill-rule="evenodd">
        <path fill="#000" fill-rule="nonzero" d="M20 10c0-5.523-4.477-10-10-10S0 4.477 0 10s4.477 10 10 10 10-4.477 10-10z"/>
        <path stroke="#FFF" d="M18.8 10a8.8 8.8 0 1 0-17.6 0 8.8 8.8 0 0 0 17.6 0z"/>
        <path fill="#FFF" d="M10.176 5.59c-.252 0-.5.021-.74.061A2.702 2.702 0 0 0 7.94 5.2C6.426 5.2 5.2 6.445 5.2 7.98c0 .559.162 1.078.441 1.514a4.68 4.68 0 0 0-.057.73c0 2.56 2.055 4.635 4.592 4.635.286 0 .565-.028.836-.078.42.265.916.419 1.448.419 1.514 0 2.74-1.245 2.74-2.78 0-.58-.175-1.12-.476-1.567.028-.206.044-.415.044-.629 0-2.559-2.056-4.634-4.592-4.634z"/>
        <path fill="#000" d="M7.987 11.477c.57-.038.911.659 1.215.852.304.194 1.459.634 2.069-.077.664-.775-.442-1.175-1.253-1.296-1.157-.175-2.619-.814-2.505-2.072.114-1.257 1.048-1.902 2.03-1.993 1.253-.116 2.069.193 2.714.755.746.648.342 1.373-.133 1.431-.474.058-1.005-1.066-2.049-1.083-1.076-.017-1.803 1.141-.475 1.47 1.329.33 2.752.465 3.264 1.704.513 1.239-.796 2.554-2.258 2.632-1.46.077-2.144-.252-2.77-.851-.7-.67-.419-1.433.151-1.472z"/>
    </g>
</svg>
