<svg xmlns="http://www.w3.org/2000/svg" width="20" height="20" viewBox="0 0 20 20"><g fill="none" fill-rule="evenodd"><path fill="#000" fill-rule="nonzero" d="M10 20c5.523 0 10-4.477 10-10S15.523 0 10 0 0 4.477 0 10s4.477 10 10 10z"/><path stroke="#FFF" d="M10 18.8a8.8 8.8 0 1 0 0-17.6 8.8 8.8 0 0 0 0 17.6z"/><path fill="#FFF" d="M5.6 8.047v5.816h1.884V8.047zM6.666 5.2C6.02 5.2 5.6 5.634 5.6 6.205c0 .558.409 1.005 1.041 1.005h.012c.657 0 1.067-.447 1.067-1.005-.013-.57-.41-1.005-1.054-1.005zm5.564 2.847c-1 0-1.447.565-1.697.96v-.823H8.648c.025.546 0 5.816 0 5.816h1.885v-3.248c0-.174.012-.347.062-.472.136-.347.446-.707.966-.707.682 0 .955.534.955 1.315V14H14.4v-3.335c0-1.786-.93-2.618-2.17-2.618z"/></g></svg>