<svg xmlns="http://www.w3.org/2000/svg" width="32" height="34" viewBox="0 0 32 34"><defs><linearGradient id="a" x1="50%" x2="50%" y1="0%" y2="100%"><stop offset="0%" stop-color="#D54A3F"/><stop offset="100%" stop-color="#8544B9"/></linearGradient></defs><g fill="none" fill-rule="evenodd" stroke="url(#a)" stroke-linecap="round" stroke-linejoin="round" stroke-width="1.5" transform="translate(-884 -529)"><path d="M909.643 544.933c0-5.302-4.317-9.6-9.643-9.6-5.326 0-9.643 4.298-9.643 9.6 0 3.768 2.185 7.019 5.357 8.59v6.344h2.143V562h4.286v-2.133h2.143v-6.343c3.172-1.572 5.357-4.823 5.357-8.59zM900 530v2.133m-10.607 2.241l1.516 1.508M885 544h2.143M915 544h-2.143m-2.25-9.626l-1.516 1.508"/><path d="M903.214 544.933L900 543.867V546l-3.214-1.067"/></g></svg>