<svg xmlns="http://www.w3.org/2000/svg" width="36" height="30" viewBox="0 0 36 30"><defs><linearGradient id="a" x1="50%" x2="50%" y1="0%" y2="100%"><stop offset="0%" stop-color="#D64A3C"/><stop offset="100%" stop-color="#7A44CA"/></linearGradient></defs><path d="M612.455 556.833l5.338-10.628 1.2 1.193 5.22-3.728-.568-.786-4.548 3.248-7.673-7.63 3.234-4.49-.792-.563-3.713 5.157 1.203 1.196-10.69 5.307-.013.282c-.245 4.75-.72 10.036-3.285 12.67l-.334.342.721.717.688.685.65.646.345-.343c2.544-2.54 7.685-3.003 12.732-3.26l.285-.015zm-13.091 2.057l6.684-6.649a1.464 1.464 0 0 0 1.607-.306c.57-.566.57-1.486 0-2.053a1.465 1.465 0 0 0-2.064 0 1.44 1.44 0 0 0-.254 1.699l-6.893 6.856-.056-.056c2.468-2.896 2.973-8.003 3.221-12.658l10.472-5.2 4.988 4.96-5.231 10.413c-4.786.251-9.618.729-12.474 2.994zm2.467 2.694h31.135v1h-31.135z" fill="url(#a)" transform="translate(-597 -533)"/></svg>