<svg xmlns="http://www.w3.org/2000/svg" width="31" height="30" viewBox="0 0 31 30"><defs><linearGradient id="a" x1="50%" x2="50%" y1="0%" y2="100%"><stop offset="0%" stop-color="#E54A21"/><stop offset="100%" stop-color="#6A44E5"/></linearGradient></defs><g fill="url(#a)" transform="translate(-597 -208)"><path d="M626.063 208h-27.125c-1.07 0-1.938.84-1.938 1.875v20c0 1.036.867 1.875 1.938 1.875h8.395v2.675l-1.498.481a.627.627 0 0 0-.44.594v1.25h-1.29V238h10.978v-1.25h-8.395v-.8l1.395-.45h7v-1.25h-6.458v-2.5h6.458v-1.25h-16.146a.636.636 0 0 1-.645-.625v-3.75h16.791v-1.25h-16.791v-15c0-.345.289-.625.645-.625h27.125c.357 0 .646.28.646.625v9.375H628v-9.375c0-1.036-.867-1.875-1.938-1.875z"/><path d="M626.708 220.5h-9.041c-.714 0-1.292.56-1.292 1.25v15c0 .69.578 1.25 1.292 1.25h9.041c.714 0 1.292-.56 1.292-1.25v-15c0-.69-.578-1.25-1.292-1.25zm0 16.25h-9.041v-1.875h9.041v1.875zm0-3.125h-9.041v-8.75h9.041v8.75zm0-10h-9.041v-1.875h9.041v1.875z"/></g></svg>